<?xml version="1.0" encoding="utf-8"?>
<!-- Generator: Adobe Illustrator 28.1.0, SVG Export Plug-In . SVG Version: 6.00 Build 0)  -->
<svg version="1.1" id="Layer_1" xmlns="http://www.w3.org/2000/svg" xmlns:xlink="http://www.w3.org/1999/xlink" x="0px" y="0px"
	 viewBox="0 0 130 52" style="enable-background:new 0 0 130 52;" xml:space="preserve">
<style type="text/css">
	.st0{fill:#1096EB;}
	.st1{fill:#141414;}
	.st2{fill:#F58E27;}
	.st3{fill:#222222;}
</style>
<g>
	<path class="st0" d="M37,46.9h-29c-3.9,0-7-3.1-7-7v-28c0-3.9,3.1-7,7-7h29c3.9,0,7,3.1,7,7v28C44,43.7,40.8,46.9,37,46.9z"/>
	<g>
		<path class="st1" d="M37.3,42.7l-11.7-22c0.2-0.1,0.4-0.3,0.6-0.4c1.1-1,1.7-2.4,1.7-3.9c0-0.8-0.2-1.6-0.6-2.3v0l0-0.1
			c-0.6-1.2-1.7-2.2-3.1-2.6V8.2h-3.3v3.1c-1.3,0.4-2.3,1.3-3,2.4c-0.4,0.8-0.7,1.7-0.7,2.6c0,1.5,0.6,2.9,1.7,3.9
			c0.2,0.2,0.3,0.3,0.5,0.4L7.6,42.7l-0.4,0.7l0,0.1h3.8l11-20.2h1.2l10.6,20l0,0l0,0l0.1,0.1h3.9L37.3,42.7z M24.7,16.7
			c0,0,0,0.1,0,0.1c0,0.1,0,0.1-0.1,0.2c-0.1,0.2-0.2,0.4-0.3,0.6c0,0.1-0.1,0.1-0.1,0.2c0,0.1-0.1,0.1-0.2,0.2
			c-0.3,0.3-0.8,0.5-1.2,0.6c0,0-0.1,0-0.1,0c0,0,0,0-0.1,0c0,0,0,0,0,0c0,0-0.1,0-0.1,0c0,0-0.1,0-0.1,0c0,0-0.1,0-0.1,0
			c-0.2,0-0.4-0.1-0.6-0.2c-0.2-0.1-0.3-0.2-0.4-0.3c0,0-0.1-0.1-0.1-0.1c0,0-0.1-0.1-0.1-0.1c-0.4-0.4-0.6-0.9-0.6-1.5
			c0-0.2,0-0.5,0.1-0.7c0,0,0-0.1,0-0.1c0,0,0-0.1,0.1-0.1c0,0,0-0.1,0.1-0.1c0.1-0.2,0.2-0.3,0.3-0.4c0.1-0.1,0.3-0.2,0.4-0.3
			c0.1,0,0.1-0.1,0.2-0.1c0.1-0.1,0.3-0.1,0.4-0.1c0.1,0,0.1,0,0.2,0c0.1,0,0.2,0,0.3,0c0.1,0,0.1,0,0.2,0c0,0,0,0,0,0
			c0,0,0.1,0,0.1,0c0,0,0.1,0,0.1,0c0.4,0.1,0.7,0.3,1,0.6c0.1,0.1,0.3,0.3,0.4,0.5l0,0.1c0.1,0.1,0.1,0.2,0.1,0.3c0,0,0,0.1,0,0.1
			c0,0,0,0.1,0,0.1c0,0.1,0,0.2,0,0.3c0,0,0,0.1,0,0.1C24.7,16.5,24.7,16.6,24.7,16.7z"/>
		<rect x="29.7" y="23.9" transform="matrix(0.8841 -0.4673 0.4673 0.8841 -8.5568 17.379)" class="st1" width="2" height="4"/>
		<rect x="12.4" y="24.9" transform="matrix(0.4758 -0.8796 0.8796 0.4758 -15.2797 26.1995)" class="st1" width="4" height="2"/>
		<path class="st2" d="M12.9,8.2v3.4H9.4c-1,0-1.8,0.7-1.8,1.5v11.1c0,0.7-0.5,1.4-1.1,1.7c0.7,0.4,1.1,1,1.1,1.7v11.3l-1.2,2.2l0,0
			l0,0l-0.8,1.6c-0.1-0.1-0.2-0.2-0.3-0.2c-0.7-0.7-1.1-1.7-1.1-2.7V29.3c0-0.8-0.6-1.4-1.4-1.4H2.4v-4.1h0.4c0.8,0,1.4-0.6,1.4-1.4
			V12c0-1,0.4-2,1.1-2.7C6,8.6,7,8.2,8,8.2H12.9z"/>
		<path class="st2" d="M42.5,23.8v4.1h-0.4c-0.8,0-1.4,0.6-1.4,1.4v10.4c0,1-0.4,2-1.1,2.7c-0.1,0.1-0.2,0.2-0.3,0.2l-0.8-1.5l0,0
			l0,0l-1.2-2.3V27.6c0-0.7,0.5-1.4,1.1-1.7c-0.7-0.4-1.1-1-1.1-1.7V13.1c0-0.8-0.8-1.5-1.8-1.5H32V8.2h4.9c1,0,2,0.4,2.7,1.1
			c0.7,0.7,1.1,1.7,1.1,2.7v10.4c0,0.8,0.6,1.4,1.4,1.4H42.5z"/>
		<path class="st2" d="M23.5,16L23.5,16c-0.2-0.3-0.4-0.5-0.7-0.5c-0.1,0-0.2,0-0.2,0c-0.1,0-0.2,0-0.2,0c-0.3,0.1-0.5,0.2-0.6,0.5
			c-0.1,0.1-0.1,0.3-0.1,0.5c0,0.3,0.1,0.5,0.3,0.7c0.2,0.1,0.4,0.2,0.6,0.3c0,0,0.1,0,0.1,0c0,0,0.1,0,0.1,0c0.2,0,0.4-0.1,0.6-0.3
			c0.2-0.2,0.3-0.4,0.3-0.7C23.6,16.2,23.5,16.1,23.5,16L23.5,16z"/>
	</g>
</g>
<g>
	<path class="st3" d="M59.8,15.2l3.9,1.2c-0.3,1.1-0.7,2-1.2,2.7c-0.6,0.7-1.3,1.3-2.1,1.6c-0.8,0.4-1.9,0.6-3.2,0.6
		c-1.6,0-2.8-0.2-3.8-0.7c-1-0.5-1.8-1.2-2.5-2.4c-0.7-1.1-1.1-2.6-1.1-4.4c0-2.4,0.6-4.2,1.9-5.4s3-1.9,5.3-1.9
		c1.8,0,3.2,0.4,4.2,1.1c1,0.7,1.8,1.8,2.3,3.4l-3.9,0.9c-0.1-0.4-0.3-0.8-0.4-1c-0.2-0.3-0.5-0.6-0.9-0.8c-0.4-0.2-0.8-0.3-1.2-0.3
		c-1,0-1.8,0.4-2.3,1.2c-0.4,0.6-0.6,1.5-0.6,2.8c0,1.6,0.2,2.7,0.7,3.3c0.5,0.6,1.2,0.9,2,0.9c0.8,0,1.5-0.2,1.9-0.7
		C59.3,16.8,59.6,16.1,59.8,15.2z"/>
	<path class="st3" d="M74.6,18.7h-5l-0.7,2.4h-4.5l5.4-14.3h4.8l5.4,14.3h-4.6L74.6,18.7z M73.7,15.6l-1.6-5.1l-1.6,5.1H73.7z"/>
	<path class="st3" d="M81.4,6.8H88c1.3,0,2.3,0.2,3.1,0.5c0.8,0.4,1.5,0.9,2,1.5s0.9,1.4,1.1,2.3s0.4,1.8,0.4,2.8
		c0,1.5-0.2,2.7-0.5,3.5c-0.3,0.8-0.8,1.5-1.4,2.1c-0.6,0.6-1.3,0.9-2,1.1c-1,0.3-1.8,0.4-2.6,0.4h-6.6V6.8z M85.8,10v7.8h1.1
		c0.9,0,1.6-0.1,2-0.3s0.7-0.6,0.9-1.1c0.2-0.5,0.3-1.3,0.3-2.5c0-1.5-0.2-2.5-0.7-3.1c-0.5-0.6-1.3-0.8-2.5-0.8H85.8z"/>
	<path class="st3" d="M114.8,14.1l3.1,0.7c-0.2,0.6-0.3,1-0.5,1.4c-0.1,0.3-0.4,0.8-0.6,1.2l1.5,1c0.2,0.1,0.4,0.3,0.7,0.4l-2.1,2.5
		c-0.4-0.2-0.8-0.4-1.2-0.7c-0.4-0.3-0.8-0.5-1.1-0.7c-0.7,0.5-1.4,0.8-2.1,1c-1,0.3-2,0.4-3.3,0.4c-1.9,0-3.3-0.4-4.2-1.2
		c-0.9-0.8-1.4-1.8-1.4-2.9c0-0.8,0.3-1.6,0.8-2.3c0.5-0.7,1.4-1.3,2.7-1.8c-0.5-0.6-0.9-1.2-1.1-1.6s-0.3-0.9-0.3-1.4
		c0-1,0.4-1.8,1.2-2.5c0.8-0.7,1.9-1,3.5-1c1.6,0,2.8,0.3,3.5,0.9c0.8,0.6,1.1,1.4,1.1,2.2c0,0.5-0.1,1-0.3,1.4
		c-0.2,0.4-0.5,0.8-0.8,1.1c-0.3,0.3-0.9,0.7-1.7,1.2c0.7,0.7,1.4,1.3,2.2,1.9C114.5,15,114.6,14.6,114.8,14.1z M108.8,15.1
		c-0.5,0.4-0.9,0.7-1.1,1c-0.2,0.3-0.3,0.6-0.3,0.9c0,0.5,0.2,0.9,0.6,1.3s0.9,0.6,1.6,0.6c0.7,0,1.5-0.3,2.4-0.8
		C111.2,17.3,110.1,16.3,108.8,15.1z M110.2,11.6c0.5-0.3,0.9-0.6,1.2-0.9c0.3-0.3,0.4-0.6,0.4-0.9c0-0.3-0.1-0.6-0.4-0.8
		c-0.2-0.2-0.6-0.3-1-0.3c-0.4,0-0.7,0.1-1,0.4c-0.3,0.2-0.4,0.5-0.4,0.8C109.2,10.3,109.5,10.8,110.2,11.6z"/>
	<path class="st3" d="M59.8,39.1l3.9,1.2c-0.3,1.1-0.7,2-1.2,2.7c-0.6,0.7-1.3,1.3-2.1,1.6c-0.8,0.4-1.9,0.6-3.2,0.6
		c-1.6,0-2.8-0.2-3.8-0.7c-1-0.5-1.8-1.2-2.5-2.4c-0.7-1.1-1.1-2.6-1.1-4.4c0-2.4,0.6-4.2,1.9-5.4s3-1.9,5.3-1.9
		c1.8,0,3.2,0.4,4.2,1.1c1,0.7,1.8,1.8,2.3,3.3l-3.9,0.9c-0.1-0.4-0.3-0.8-0.4-1c-0.2-0.3-0.5-0.6-0.9-0.8c-0.4-0.2-0.8-0.3-1.2-0.3
		c-1,0-1.8,0.4-2.3,1.2c-0.4,0.6-0.6,1.5-0.6,2.8c0,1.6,0.2,2.7,0.7,3.3s1.2,0.9,2,0.9c0.8,0,1.5-0.2,1.9-0.7
		C59.3,40.7,59.6,40,59.8,39.1z"/>
	<path class="st3" d="M65.3,37.9c0-2.3,0.6-4.1,1.9-5.4c1.3-1.3,3.1-1.9,5.4-1.9c2.4,0,4.2,0.6,5.5,1.9c1.3,1.3,1.9,3.1,1.9,5.4
		c0,1.7-0.3,3-0.8,4.1c-0.6,1.1-1.4,1.9-2.4,2.5c-1.1,0.6-2.4,0.9-4,0.9c-1.6,0-2.9-0.3-4-0.8c-1.1-0.5-1.9-1.3-2.6-2.4
		C65.6,40.9,65.3,39.5,65.3,37.9z M69.7,37.9c0,1.4,0.3,2.5,0.8,3.1s1.3,0.9,2.2,0.9c0.9,0,1.7-0.3,2.2-0.9c0.5-0.6,0.8-1.7,0.8-3.3
		c0-1.3-0.3-2.3-0.8-2.9s-1.3-0.9-2.2-0.9c-0.9,0-1.6,0.3-2.1,0.9S69.7,36.4,69.7,37.9z"/>
	<path class="st3" d="M82.5,30.7h6.6c1.3,0,2.3,0.2,3.1,0.5c0.8,0.4,1.5,0.9,2,1.5c0.5,0.7,0.9,1.4,1.1,2.3s0.4,1.8,0.4,2.8
		c0,1.5-0.2,2.7-0.5,3.5c-0.3,0.8-0.8,1.5-1.4,2.1c-0.6,0.6-1.3,0.9-2,1.1c-1,0.3-1.8,0.4-2.6,0.4h-6.6V30.7z M86.9,33.9v7.8H88
		c0.9,0,1.6-0.1,2-0.3s0.7-0.6,0.9-1.1s0.3-1.3,0.3-2.5c0-1.5-0.2-2.5-0.7-3.1c-0.5-0.6-1.3-0.8-2.5-0.8H86.9z"/>
	<path class="st3" d="M98,30.7h11.8v3h-7.4V36h6.9v2.9h-6.9v2.8h7.6V45H98V30.7z"/>
	<path class="st3" d="M111.6,40.3l4.2-0.3c0.1,0.7,0.3,1.2,0.6,1.6c0.5,0.6,1.1,0.9,1.9,0.9c0.6,0,1.1-0.1,1.5-0.4
		c0.3-0.3,0.5-0.6,0.5-1c0-0.4-0.2-0.7-0.5-1s-1.1-0.6-2.3-0.8c-1.9-0.4-3.3-1-4.1-1.7c-0.8-0.7-1.2-1.6-1.2-2.8
		c0-0.7,0.2-1.4,0.6-2.1c0.4-0.7,1.1-1.2,1.9-1.5c0.9-0.4,2-0.6,3.5-0.6c1.8,0,3.2,0.3,4.2,1c1,0.7,1.5,1.8,1.7,3.2l-4.2,0.2
		c-0.1-0.6-0.3-1.1-0.7-1.4c-0.4-0.3-0.8-0.4-1.5-0.4c-0.5,0-0.9,0.1-1.2,0.3c-0.3,0.2-0.4,0.5-0.4,0.8c0,0.2,0.1,0.4,0.3,0.6
		c0.2,0.2,0.7,0.4,1.5,0.5c1.9,0.4,3.3,0.8,4.1,1.3c0.8,0.4,1.4,1,1.8,1.6s0.6,1.3,0.6,2.1c0,0.9-0.3,1.8-0.8,2.5
		c-0.5,0.8-1.2,1.4-2.1,1.8s-2.1,0.6-3.4,0.6c-2.4,0-4.1-0.5-5-1.4C112.3,42.9,111.7,41.7,111.6,40.3z"/>
</g>
</svg>
