<?xml version="1.0" encoding="utf-8"?>
<!-- Generator: Adobe Illustrator 28.1.0, SVG Export Plug-In . SVG Version: 6.00 Build 0)  -->
<svg version="1.1" id="Layer_1" xmlns="http://www.w3.org/2000/svg" xmlns:xlink="http://www.w3.org/1999/xlink" x="0px" y="0px"
	 viewBox="0 0 43 52" style="enable-background:new 0 0 43 52;" xml:space="preserve">
<style type="text/css">
	.st0{fill:#1096EB;}
	.st1{fill:#141414;}
	.st2{fill:#F58E27;}
</style>
<g>
	<path class="st0" d="M36,47H7c-3.9,0-7-3.1-7-7V12c0-3.9,3.1-7,7-7h29c3.9,0,7,3.1,7,7v28C43,43.9,39.9,47,36,47z"/>
	<g>
		<path class="st1" d="M36.3,42.8l-11.7-22c0.2-0.1,0.4-0.3,0.6-0.4c1.1-1,1.7-2.4,1.7-3.9c0-0.8-0.2-1.6-0.6-2.3v0l0-0.1
			c-0.6-1.2-1.7-2.2-3.1-2.6V8.3H20v3.1c-1.3,0.4-2.3,1.3-3,2.4c-0.4,0.8-0.7,1.7-0.7,2.6c0,1.5,0.6,2.9,1.7,3.9
			c0.2,0.2,0.3,0.3,0.5,0.4L6.7,42.8l-0.4,0.7l0,0.1H10l11-20.2h1.2l10.6,20l0,0l0,0l0.1,0.1h3.9L36.3,42.8z M23.7,16.8
			c0,0,0,0.1,0,0.1c0,0.1,0,0.1-0.1,0.2c-0.1,0.2-0.2,0.4-0.3,0.6c0,0.1-0.1,0.1-0.1,0.2c0,0.1-0.1,0.1-0.2,0.2
			c-0.3,0.3-0.8,0.5-1.2,0.6c0,0-0.1,0-0.1,0c0,0,0,0-0.1,0c0,0,0,0,0,0c0,0-0.1,0-0.1,0c0,0-0.1,0-0.1,0c0,0-0.1,0-0.1,0
			c-0.2,0-0.4-0.1-0.6-0.2c-0.2-0.1-0.3-0.2-0.4-0.3c0,0-0.1-0.1-0.1-0.1c0,0-0.1-0.1-0.1-0.1c-0.4-0.4-0.6-0.9-0.6-1.5
			c0-0.2,0-0.5,0.1-0.7c0,0,0-0.1,0-0.1c0,0,0-0.1,0.1-0.1c0,0,0-0.1,0.1-0.1c0.1-0.2,0.2-0.3,0.3-0.4c0.1-0.1,0.3-0.2,0.4-0.3
			c0.1,0,0.1-0.1,0.2-0.1c0.1-0.1,0.3-0.1,0.4-0.1c0.1,0,0.1,0,0.2,0c0.1,0,0.2,0,0.3,0c0.1,0,0.1,0,0.2,0c0,0,0,0,0,0
			c0,0,0.1,0,0.1,0c0,0,0.1,0,0.1,0c0.4,0.1,0.7,0.3,1,0.6c0.1,0.1,0.3,0.3,0.4,0.5l0,0.1c0.1,0.1,0.1,0.2,0.1,0.3c0,0,0,0.1,0,0.1
			c0,0,0,0.1,0,0.1c0,0.1,0,0.2,0,0.3c0,0,0,0.1,0,0.1C23.8,16.6,23.8,16.7,23.7,16.8z"/>
		<rect x="28.8" y="24.1" transform="matrix(0.8841 -0.4673 0.4673 0.8841 -8.7228 16.9489)" class="st1" width="2" height="4"/>
		<rect x="11.4" y="25" transform="matrix(0.4758 -0.8796 0.8796 0.4758 -15.8827 25.4266)" class="st1" width="4" height="2"/>
		<path class="st2" d="M12,8.3v3.4H8.4c-1,0-1.8,0.7-1.8,1.5v11.1c0,0.7-0.5,1.4-1.1,1.7c0.7,0.4,1.1,1,1.1,1.7V39l-1.2,2.2l0,0l0,0
			l-0.8,1.6c-0.1-0.1-0.2-0.2-0.3-0.2c-0.7-0.7-1.1-1.7-1.1-2.7V29.4c0-0.8-0.6-1.4-1.4-1.4H1.5V24h0.4c0.8,0,1.4-0.6,1.4-1.4V12.2
			c0-1,0.4-2,1.1-2.7c0.7-0.7,1.7-1.1,2.7-1.1H12z"/>
		<path class="st2" d="M41.5,24V28h-0.4c-0.8,0-1.4,0.6-1.4,1.4v10.4c0,1-0.4,2-1.1,2.7c-0.1,0.1-0.2,0.2-0.3,0.2l-0.8-1.5l0,0l0,0
			L36.3,39V27.7c0-0.7,0.5-1.4,1.1-1.7c-0.7-0.4-1.1-1-1.1-1.7V13.2c0-0.8-0.8-1.5-1.8-1.5H31V8.3h4.9c1,0,2,0.4,2.7,1.1
			c0.7,0.7,1.1,1.7,1.1,2.7v10.4c0,0.8,0.6,1.4,1.4,1.4H41.5z"/>
		<path class="st2" d="M22.5,16.1L22.5,16.1c-0.2-0.3-0.4-0.5-0.7-0.5c-0.1,0-0.2,0-0.2,0c-0.1,0-0.2,0-0.2,0
			c-0.3,0.1-0.5,0.2-0.6,0.5c-0.1,0.1-0.1,0.3-0.1,0.5c0,0.3,0.1,0.5,0.3,0.7c0.2,0.1,0.4,0.2,0.6,0.3c0,0,0.1,0,0.1,0
			c0,0,0.1,0,0.1,0c0.2,0,0.4-0.1,0.6-0.3c0.2-0.2,0.3-0.4,0.3-0.7C22.6,16.4,22.6,16.2,22.5,16.1L22.5,16.1z"/>
	</g>
</g>
</svg>
