<svg
              class="h-8"
              viewBox="0 0 28 24"
              fill="none"
              xmlns="http://www.w3.org/2000/svg"
            >
              <path
                d="M15.6,8.7C16.5,8,17.1,7,17.1,5.8c0-1.5-1-2.9-2.4-3.3v-2h-2.1v2c-1.4,0.4-2.4,1.8-2.4,3.3c0,1.2,0.6,2.2,1.5,2.8l-8,14.8
	l0,0H6l7.2-13.1H14l6.9,13l0,0l0,0v0.1h2.5L15.6,8.7z M13.6,4.4c0.8,0,1.5,0.7,1.5,1.5s-0.7,1.5-1.5,1.5s-1.5-0.7-1.5-1.5
	C12.2,5,12.8,4.4,13.6,4.4z"
                fill="currentColor"
              />
              <path
                d="M7.3,0.5v2.2H5c-0.6,0-1.2,0.4-1.2,0.9v7.2c0,0.5-0.3,0.9-0.7,1.1c0.4,0.2,0.7,0.7,0.7,1.1v7.3l-1.3,2.4
	c-0.1,0-0.1-0.1-0.2-0.2c-0.5-0.5-0.7-1.1-0.7-1.8v-6.8c0-0.5-0.4-0.9-0.9-0.9H0.5v-2.7h0.3c0.5,0,0.9-0.4,0.9-0.9V3
	c0-0.7,0.3-1.3,0.7-1.8c0.5-0.5,1.1-0.7,1.8-0.7C4.2,0.5,7.3,0.5,7.3,0.5z"
                fill="currentColor"
              />
              <path
                d="M24.5,22.9c0.1,0,0.1-0.1,0.2-0.2c0.5-0.5,0.7-1.1,0.7-1.8v-6.8c0-0.5,0.4-0.9,0.9-0.9h0.3v-2.7h-0.3
	c-0.5,0-0.9-0.4-0.9-0.9V3c0-0.7-0.3-1.3-0.7-1.8c-0.5-0.5-1.1-0.7-1.8-0.7h-3.2v2.2H22c0.6,0,1.2,0.4,1.2,0.9v7.2
	c0,0.5,0.3,0.9,0.7,1.1c-0.4,0.2-0.7,0.7-0.7,1.1v7.4L24.5,22.9z"
                fill="currentColor"
              />
              <path
                d="M24,22"
                fill="currentColor"
              />
            </svg>