<svg
              class="h-8"
              viewBox="0 0 118 24"
              fill="none"
              xmlns="http://www.w3.org/2000/svg"
            >
              <path
                d="M9.3,16.4c-1.7,0-3.1-0.5-4.1-1.5s-1.6-2.3-1.6-4c0-1.7,0.5-3,1.6-4s2.4-1.5,4.1-1.5c1.4,0,2.7,0.4,3.6,1.1s1.6,1.8,1.8,3
		c0,0.2-0.1,0.4-0.3,0.4h-2.2c-0.2,0-0.3-0.1-0.4-0.3c-0.2-0.6-0.5-1-0.9-1.3c-0.4-0.3-1-0.4-1.6-0.4c-0.9,0-1.6,0.3-2.1,0.8
		C6.7,9.3,6.4,10,6.4,10.9c0,0.9,0.3,1.6,0.8,2.2c0.5,0.6,1.2,0.8,2.1,0.8c0.6,0,1.1-0.2,1.6-0.5c0.4-0.3,0.7-0.7,0.9-1.3
		c0.1-0.2,0.2-0.3,0.4-0.3h2.2c0.2,0,0.4,0.1,0.3,0.4c-0.3,1.3-0.9,2.3-1.8,3C12,16.1,10.7,16.4,9.3,16.4z"
                fill="currentColor"
              />
              <path
                d="M15.5,16.2c-0.1,0-0.2,0-0.3-0.1c-0.1-0.1-0.1-0.2,0-0.3l4.3-9.8c0.1-0.2,0.2-0.3,0.4-0.3h2.1c0.2,0,0.3,0.1,0.4,0.3
		l4.3,9.8c0.1,0.1,0.1,0.2,0,0.3s-0.1,0.1-0.3,0.1h-2.3c-0.2,0-0.3-0.1-0.4-0.3l-0.6-1.6h-4.3l-0.6,1.6c-0.1,0.2-0.2,0.3-0.4,0.3
		H15.5z M19.7,12.1h2.6L21,8.9L19.7,12.1z"
                fill="currentColor"
              />
              <path
                d="M32.2,5.7c1.8,0,3.2,0.5,4.3,1.4c1.1,0.9,1.6,2.2,1.6,3.8c0,1.6-0.5,2.9-1.6,3.8c-1.1,0.9-2.5,1.4-4.3,1.4h-4
		c-0.2,0-0.4-0.1-0.4-0.3V6c0-0.2,0.1-0.3,0.4-0.3H32.2z M32.1,13.8c0.9,0,1.7-0.3,2.3-0.8c0.6-0.5,0.9-1.2,0.9-2.1
		c0-0.9-0.3-1.6-0.9-2.1c-0.6-0.5-1.3-0.8-2.3-0.8h-1.4v5.7H32.1z"
                fill="currentColor"
              />
              <path
                d="M46.9,16.4c-1.2,0-2.2-0.3-3-0.9c-0.8-0.6-1.1-1.4-1.1-2.3c0-0.7,0.2-1.2,0.6-1.7c0.4-0.5,0.9-0.9,1.5-1.1
		C44.3,9.9,44,9.2,44,8.4c0-0.9,0.3-1.6,1-2.2c0.7-0.5,1.5-0.8,2.6-0.8c1,0,1.9,0.3,2.5,0.8c0.6,0.5,1,1.2,1.2,2.1
		c0,0.1,0,0.2-0.1,0.3c-0.1,0.1-0.1,0.1-0.3,0.1h-1.8c-0.2,0-0.3-0.1-0.4-0.3c-0.2-0.5-0.5-0.8-1-0.8c-0.3,0-0.5,0.1-0.7,0.3
		c-0.2,0.2-0.3,0.4-0.3,0.6c0,0.2,0.1,0.4,0.2,0.6c0.1,0.2,0.4,0.4,0.7,0.8c0.2,0.2,0.5,0.5,0.8,0.7c0.3,0.3,0.6,0.6,0.9,0.9
		c0.3,0.3,0.6,0.6,0.8,0.7c0.2-0.3,0.5-0.7,0.8-1.2c0.1-0.2,0.2-0.2,0.4-0.2h2c0.1,0,0.2,0,0.3,0.1c0,0.1,0,0.2,0,0.3
		c-0.6,1.1-1.2,2-1.8,2.7l2.1,2c0.1,0.1,0.1,0.2,0.1,0.3s-0.1,0.1-0.3,0.1h-2.6c-0.2,0-0.3-0.1-0.4-0.2l-0.7-0.6
		C49.1,16.1,48,16.4,46.9,16.4z M46.9,14.3c0.6,0,1.1-0.2,1.5-0.5l-2.1-1.9c-0.7,0.3-1,0.7-1,1.2c0,0.4,0.1,0.7,0.4,0.9
		C46.1,14.2,46.4,14.3,46.9,14.3z"
                fill="currentColor"
              />
              <path
                d="M64.2,16.4c-1.7,0-3.1-0.5-4.1-1.5c-1-1-1.6-2.3-1.6-4c0-1.7,0.5-3,1.6-4c1-1,2.4-1.5,4.1-1.5c1.4,0,2.7,0.4,3.6,1.1
		c1,0.7,1.6,1.8,1.8,3c0,0.2-0.1,0.4-0.3,0.4h-2.2c-0.2,0-0.3-0.1-0.4-0.3c-0.2-0.6-0.5-1-0.9-1.3c-0.4-0.3-1-0.4-1.6-0.4
		c-0.9,0-1.6,0.3-2.1,0.8c-0.5,0.6-0.8,1.3-0.8,2.2c0,0.9,0.3,1.6,0.8,2.2c0.5,0.6,1.2,0.8,2.1,0.8c0.6,0,1.1-0.2,1.6-0.5
		c0.4-0.3,0.7-0.7,0.9-1.3c0.1-0.2,0.2-0.3,0.4-0.3h2.2c0.2,0,0.4,0.1,0.3,0.4c-0.2,1.3-0.9,2.3-1.8,3
		C66.9,16.1,65.7,16.4,64.2,16.4z"
                fill="currentColor"
              />
              <path
                d="M80.8,14.9c-1.1,1-2.5,1.5-4.2,1.5c-1.7,0-3.1-0.5-4.2-1.5c-1.1-1-1.6-2.3-1.6-4s0.5-3,1.6-4s2.5-1.5,4.2-1.5
		c1.7,0,3.1,0.5,4.2,1.5s1.6,2.3,1.6,4S81.9,13.9,80.8,14.9z M74.6,13.1c0.5,0.6,1.2,0.8,2.1,0.8c0.9,0,1.6-0.3,2.1-0.8
		c0.5-0.6,0.8-1.3,0.8-2.2s-0.3-1.6-0.8-2.2s-1.2-0.8-2.1-0.8c-0.9,0-1.6,0.3-2.1,0.8c-0.5,0.6-0.8,1.3-0.8,2.2S74,12.6,74.6,13.1z"
                fill="currentColor"
              />
              <path
                d="M88.3,5.7c1.8,0,3.2,0.5,4.3,1.4s1.6,2.2,1.6,3.8c0,1.6-0.5,2.9-1.6,3.8c-1.1,0.9-2.5,1.4-4.3,1.4h-4
		c-0.2,0-0.4-0.1-0.4-0.3V6c0-0.2,0.1-0.3,0.4-0.3H88.3z M88.1,13.8c0.9,0,1.7-0.3,2.3-0.8s0.9-1.2,0.9-2.1c0-0.9-0.3-1.6-0.9-2.1
		s-1.3-0.8-2.3-0.8h-1.4v5.7H88.1z"
                fill="currentColor"
              />
              <path
                d="M103.9,7.6c0,0.2-0.1,0.3-0.3,0.3h-5.1v1.9h4.3c0.2,0,0.4,0.1,0.4,0.3v1.6c0,0.2-0.1,0.3-0.4,0.3h-4.3v1.8h5.1
		c0.2,0,0.3,0.1,0.3,0.3v1.6c0,0.2-0.1,0.3-0.3,0.3H96c-0.2,0-0.4-0.1-0.4-0.3V6c0-0.2,0.1-0.3,0.4-0.3h7.5c0.2,0,0.3,0.1,0.3,0.3
		V7.6z"
                fill="currentColor"
              />
              <path
                d="M109.8,16.4c-1.3,0-2.4-0.3-3.4-0.9c-0.9-0.6-1.4-1.4-1.6-2.4c0-0.2,0.1-0.4,0.3-0.4h2.2c0.2,0,0.3,0.1,0.4,0.3
		c0.1,0.3,0.4,0.6,0.7,0.8c0.4,0.2,0.8,0.3,1.3,0.3c0.5,0,0.8-0.1,1.1-0.2c0.3-0.2,0.4-0.4,0.4-0.7c0-0.3-0.1-0.5-0.4-0.7
		c-0.3-0.2-0.7-0.3-1.1-0.4c-0.5-0.1-0.9-0.2-1.4-0.3c-0.5-0.1-1-0.3-1.4-0.5c-0.4-0.2-0.8-0.5-1.1-1c-0.3-0.5-0.4-1-0.4-1.7
		c0-1,0.4-1.8,1.2-2.4c0.8-0.6,1.9-0.9,3.2-0.9c1.2,0,2.2,0.3,3.1,0.8c0.9,0.5,1.4,1.3,1.6,2.2c0,0.1,0,0.2-0.1,0.3
		c-0.1,0.1-0.2,0.1-0.3,0.1h-2.2c-0.2,0-0.3-0.1-0.4-0.3c-0.2-0.6-0.7-0.9-1.5-0.9c-0.4,0-0.7,0.1-1,0.3c-0.3,0.2-0.4,0.4-0.4,0.7
		c0,0.3,0.1,0.6,0.4,0.8s0.7,0.3,1.1,0.4s0.9,0.2,1.4,0.3c0.5,0.1,1,0.3,1.4,0.5c0.4,0.2,0.8,0.5,1.1,0.9c0.3,0.4,0.4,1,0.4,1.7
		c0,1-0.4,1.8-1.2,2.4C112.3,16.1,111.2,16.4,109.8,16.4z"
                fill="currentColor"
              />
            </svg>