<svg
              class="h-8"
              viewBox="0 0 118 24"
              fill="none"
              xmlns="http://www.w3.org/2000/svg"
            >
              <path
                d="M15.6,8.7C16.5,8,17.1,7,17.1,5.8c0-1.5-1-2.9-2.4-3.3v-2h-2.1v2c-1.4,0.4-2.4,1.8-2.4,3.3c0,1.2,0.6,2.2,1.5,2.8l-8,14.8
		l0,0H6l7.2-13.1H14l6.9,13l0,0l0,0v0.1h2.5L15.6,8.7z M13.6,4.4c0.8,0,1.5,0.7,1.5,1.5s-0.7,1.5-1.5,1.5s-1.5-0.7-1.5-1.5
		C12.2,5,12.8,4.4,13.6,4.4z"
                fill="currentColor"
              />
              <path
                d="M7.3,0.5v2.2H5c-0.6,0-1.2,0.4-1.2,0.9v7.2c0,0.5-0.3,0.9-0.7,1.1c0.4,0.2,0.7,0.7,0.7,1.1v7.3l-1.3,2.4
		c-0.1,0-0.1-0.1-0.2-0.2c-0.5-0.5-0.7-1.1-0.7-1.8v-6.8c0-0.5-0.4-0.9-0.9-0.9H0.5v-2.7h0.3c0.5,0,0.9-0.4,0.9-0.9V3
		c0-0.7,0.3-1.3,0.7-1.8c0.5-0.5,1.1-0.7,1.8-0.7C4.2,0.5,7.3,0.5,7.3,0.5z"
                fill="currentColor"
              />
              <path
                d="M24.5,22.9c0.1,0,0.1-0.1,0.2-0.2c0.5-0.5,0.7-1.1,0.7-1.8v-6.8c0-0.5,0.4-0.9,0.9-0.9h0.3v-2.7h-0.3
		c-0.5,0-0.9-0.4-0.9-0.9V3c0-0.7-0.3-1.3-0.7-1.8c-0.5-0.5-1.1-0.7-1.8-0.7h-3.2v2.2H22c0.6,0,1.2,0.4,1.2,0.9v7.2
		c0,0.5,0.3,0.9,0.7,1.1c-0.4,0.2-0.7,0.7-0.7,1.1v7.4L24.5,22.9z"
                fill="currentColor"
              />
              <path
                d="M24,22"
                fill="currentColor"
              />
              <path
                d="M39.3,19.4c-1,0-1.9-0.3-2.5-0.9c-0.6-0.6-0.9-1.3-0.9-2.3c0-0.9,0.3-1.7,0.9-2.3c0.6-0.6,1.5-0.9,2.5-0.9
		c0.8,0,1.5,0.2,2.1,0.6s0.9,1,1,1.7c0,0.2,0,0.3-0.3,0.3h-1.4c-0.1,0-0.2-0.1-0.3-0.2c-0.1-0.2-0.2-0.4-0.4-0.5
		c-0.2-0.1-0.4-0.2-0.7-0.2c-0.4,0-0.8,0.1-1,0.4c-0.3,0.3-0.4,0.6-0.4,1.1c0,0.4,0.1,0.8,0.4,1.1c0.3,0.3,0.6,0.4,1,0.4
		c0.3,0,0.5-0.1,0.7-0.2c0.2-0.1,0.3-0.3,0.4-0.5c0.1-0.2,0.2-0.2,0.3-0.2h1.4c0.2,0,0.3,0.1,0.3,0.3c-0.1,0.7-0.5,1.3-1,1.7
		S40.2,19.4,39.3,19.4z"
                fill="currentColor"
              />
              <path
                d="M51.3,19c0,0.2-0.1,0.3-0.2,0.3c-0.4,0.1-0.7,0.1-1,0.1c-0.8,0-1.4-0.3-1.6-0.7c-0.6,0.5-1.2,0.7-2,0.7
		c-0.9,0-1.7-0.3-2.3-0.9s-0.9-1.3-0.9-2.3c0-0.9,0.3-1.7,0.9-2.3s1.3-0.9,2.3-0.9c0.7,0,1.2,0.2,1.7,0.6v-0.1
		c0-0.2,0.1-0.3,0.3-0.3h1.5c0.2,0,0.3,0.1,0.3,0.3v3.5c0,0.3,0.1,0.5,0.4,0.5c0.1,0,0.2,0,0.3,0c0.2,0,0.3,0.1,0.3,0.2L51.3,19z
		 M45.7,17.4c0.2,0.3,0.6,0.4,1,0.4c0.4,0,0.7-0.1,1-0.4c0.2-0.3,0.4-0.6,0.4-1.1s-0.1-0.8-0.4-1.1s-0.6-0.4-1-0.4
		c-0.4,0-0.7,0.1-1,0.4c-0.2,0.3-0.4,0.6-0.4,1.1C45.4,16.7,45.5,17.1,45.7,17.4z"
                fill="currentColor"
              />
              <path
                d="M59.9,19c0,0.2,0,0.3-0.2,0.3c-0.4,0.1-0.7,0.1-1,0.1c-0.8,0-1.4-0.3-1.7-0.8c-0.5,0.5-1.1,0.8-2,0.8
		c-0.9,0-1.7-0.3-2.3-0.9s-0.9-1.3-0.9-2.3c0-0.9,0.3-1.7,0.9-2.3s1.3-0.9,2.3-0.9c0.6,0,1.2,0.2,1.6,0.5v-3c0-0.2,0.1-0.3,0.3-0.3
		h1.6c0.2,0,0.3,0.1,0.3,0.3v6.5c0,0.3,0.1,0.5,0.4,0.5c0.1,0,0.2,0,0.3,0c0.2,0,0.3,0.1,0.3,0.2L59.9,19z M54.3,17.4
		c0.2,0.3,0.6,0.4,1,0.4c0.4,0,0.7-0.1,1-0.4c0.2-0.3,0.4-0.6,0.4-1.1s-0.1-0.8-0.4-1.1s-0.6-0.4-1-0.4c-0.4,0-0.7,0.1-1,0.4
		c-0.2,0.3-0.4,0.6-0.4,1.1C53.9,16.7,54,17.1,54.3,17.4z"
                fill="currentColor"
              />
              <path
                d="M66.7,19.4c-1,0-1.8-0.2-2.4-0.7c-0.6-0.5-0.9-1.1-0.9-1.8c0-0.5,0.2-1,0.5-1.4c0.3-0.4,0.7-0.7,1.2-0.9
		c-0.5-0.5-0.7-1-0.7-1.7c0-0.7,0.3-1.3,0.8-1.7c0.5-0.4,1.2-0.7,2.1-0.7c0.8,0,1.5,0.2,2,0.6c0.5,0.4,0.8,1,1,1.7
		c0,0.1,0,0.2,0,0.2S70,13.2,70,13.2h-1.4c-0.1,0-0.2-0.1-0.3-0.2c-0.1-0.4-0.4-0.6-0.8-0.6c-0.2,0-0.4,0.1-0.6,0.2
		c-0.1,0.1-0.2,0.3-0.2,0.5c0,0.2,0,0.3,0.2,0.5c0.1,0.1,0.3,0.3,0.6,0.6c0.2,0.2,0.4,0.4,0.6,0.6c0.2,0.2,0.5,0.4,0.7,0.7
		c0.3,0.3,0.5,0.5,0.6,0.6c0.2-0.2,0.4-0.5,0.7-1c0.1-0.1,0.2-0.2,0.3-0.2h1.6c0.1,0,0.2,0,0.2,0.1c0,0.1,0,0.1,0,0.2
		c-0.5,0.9-1,1.6-1.4,2.2l1.6,1.6c0.1,0.1,0.1,0.2,0.1,0.2c0,0.1-0.1,0.1-0.2,0.1h-2.1c-0.1,0-0.2,0-0.3-0.1l-0.5-0.5
		C68.5,19.2,67.6,19.4,66.7,19.4z M66.7,17.7c0.5,0,0.9-0.1,1.2-0.4l-1.7-1.5c-0.5,0.2-0.8,0.5-0.8,0.9c0,0.3,0.1,0.5,0.3,0.7
		C66,17.7,66.3,17.7,66.7,17.7z"
                fill="currentColor"
              />
              <path
                d="M79.3,19.4c-1,0-1.9-0.3-2.5-0.9s-0.9-1.3-0.9-2.3c0-0.9,0.3-1.7,0.9-2.3s1.5-0.9,2.5-0.9c0.8,0,1.5,0.2,2.1,0.6
		c0.6,0.4,0.9,1,1,1.7c0,0.2,0,0.3-0.3,0.3h-1.4c-0.1,0-0.2-0.1-0.3-0.2c-0.1-0.2-0.2-0.4-0.4-0.5s-0.4-0.2-0.7-0.2
		c-0.4,0-0.8,0.1-1,0.4c-0.3,0.3-0.4,0.6-0.4,1.1c0,0.4,0.1,0.8,0.4,1.1c0.3,0.3,0.6,0.4,1,0.4c0.3,0,0.5-0.1,0.7-0.2
		c0.2-0.1,0.3-0.3,0.4-0.5c0.1-0.2,0.2-0.2,0.3-0.2h1.4c0.2,0,0.3,0.1,0.3,0.3c-0.1,0.7-0.5,1.3-1,1.7
		C80.8,19.2,80.1,19.4,79.3,19.4z"
                fill="currentColor"
              />
              <path
                d="M89.1,18.6c-0.6,0.6-1.5,0.9-2.5,0.9c-1,0-1.8-0.3-2.5-0.9s-0.9-1.3-0.9-2.3c0-1,0.3-1.7,0.9-2.3c0.6-0.6,1.4-0.9,2.5-0.9
		c1,0,1.8,0.3,2.5,0.9s0.9,1.3,0.9,2.3C90,17.2,89.7,18,89.1,18.6z M85.6,17.3c0.3,0.3,0.6,0.4,1,0.4c0.4,0,0.8-0.1,1-0.4
		s0.4-0.6,0.4-1c0-0.4-0.1-0.8-0.4-1s-0.6-0.4-1-0.4c-0.4,0-0.8,0.1-1,0.4s-0.4,0.6-0.4,1C85.2,16.7,85.3,17,85.6,17.3z"
                fill="currentColor"
              />
              <path
                d="M98.9,19c0,0.2,0,0.3-0.2,0.3c-0.4,0.1-0.7,0.1-1,0.1c-0.8,0-1.4-0.3-1.7-0.8c-0.5,0.5-1.1,0.8-2,0.8
		c-0.9,0-1.7-0.3-2.3-0.9s-0.9-1.3-0.9-2.3c0-0.9,0.3-1.7,0.9-2.3s1.3-0.9,2.3-0.9c0.6,0,1.2,0.2,1.6,0.5v-3c0-0.2,0.1-0.3,0.3-0.3
		h1.6c0.2,0,0.3,0.1,0.3,0.3v6.5c0,0.3,0.1,0.5,0.4,0.5c0.1,0,0.2,0,0.3,0c0.2,0,0.3,0.1,0.3,0.2L98.9,19z M93.3,17.4
		c0.2,0.3,0.6,0.4,1,0.4c0.4,0,0.7-0.1,1-0.4c0.2-0.3,0.4-0.6,0.4-1.1s-0.1-0.8-0.4-1.1s-0.6-0.4-1-0.4c-0.4,0-0.7,0.1-1,0.4
		c-0.2,0.3-0.4,0.6-0.4,1.1C92.9,16.7,93,17.1,93.3,17.4z"
                fill="currentColor"
              />
              <path
                d="M102.9,19.4c-1,0-1.8-0.3-2.5-0.9s-0.9-1.3-0.9-2.3c0-0.9,0.3-1.7,0.9-2.3s1.4-0.9,2.4-0.9c1,0,1.8,0.3,2.4,0.9
		c0.6,0.6,0.9,1.3,0.9,2.3c0,0,0,0.1,0,0.2c0,0.1,0,0.1,0,0.2c0,0.2-0.1,0.3-0.3,0.3h-4.2c0.1,0.3,0.2,0.6,0.5,0.8
		c0.2,0.2,0.5,0.3,0.9,0.3c0.4,0,0.6-0.1,0.8-0.3c0.1-0.1,0.2-0.2,0.4-0.2h1.5c0.1,0,0.2,0,0.2,0.1c0,0.1,0,0.1,0,0.2
		c-0.2,0.5-0.6,1-1.1,1.3C104.3,19.3,103.7,19.4,102.9,19.4z M101.6,15.7h2.5c0-0.3-0.2-0.6-0.4-0.8s-0.5-0.3-0.8-0.3
		c-0.3,0-0.6,0.1-0.9,0.3S101.6,15.4,101.6,15.7z"
                fill="currentColor"
              />
              <path
                d="M109.8,19.4c-0.9,0-1.6-0.2-2.1-0.5s-0.9-0.8-1-1.4c0-0.2,0.1-0.3,0.3-0.3l1.4,0c0.1,0,0.2,0.1,0.3,0.2
		c0.2,0.3,0.5,0.5,1.1,0.5c0.2,0,0.4,0,0.6-0.1c0.1-0.1,0.2-0.2,0.2-0.3c0-0.2-0.1-0.3-0.3-0.3c-0.2-0.1-0.4-0.1-0.7-0.1
		c-0.3,0-0.6-0.1-0.9-0.1c-0.3-0.1-0.6-0.2-0.9-0.3c-0.3-0.1-0.5-0.3-0.7-0.6c-0.2-0.3-0.3-0.6-0.3-1c0-0.6,0.3-1.1,0.8-1.4
		c0.5-0.4,1.2-0.5,2-0.5c0.8,0,1.5,0.2,2,0.5c0.5,0.3,0.8,0.7,0.9,1.3c0,0.1,0,0.2,0,0.2s-0.1,0.1-0.2,0.1h-1.4
		c-0.1,0-0.2-0.1-0.3-0.2c-0.1-0.3-0.5-0.5-0.9-0.5c-0.2,0-0.4,0-0.6,0.1c-0.1,0.1-0.2,0.2-0.2,0.3c0,0.2,0.1,0.3,0.3,0.4
		c0.2,0.1,0.4,0.2,0.7,0.2c0.3,0,0.6,0.1,0.9,0.2c0.3,0.1,0.6,0.2,0.9,0.3c0.3,0.1,0.5,0.3,0.7,0.6c0.2,0.3,0.3,0.6,0.3,1
		c0,0.6-0.3,1.1-0.8,1.4C111.5,19.3,110.8,19.4,109.8,19.4z"
                fill="currentColor"
              />
            </svg>